<svg height="448pt" viewBox="-22 0 448 448" width="448pt" xmlns="http://www.w3.org/2000/svg"><g fill="#46f8ff"><path d="m260.089844 224c0-12-.34375-24.257812-.945313-36.441406-10.46875-6.695313-20.910156-13.109375-31.054687-18.949219-10.65625-6.136719-21.390625-11.921875-32-17.34375-10.625 5.429687-21.351563 11.199219-32 17.34375-10.136719 5.839844-20.574219 12.246094-31.054688 18.957031-.601562 12.175782-.945312 24.433594-.945312 36.433594s.34375 24.257812.945312 36.441406c10.472656 6.695313 20.910156 13.109375 31.054688 18.949219 10.65625 6.136719 21.390625 11.921875 32 17.34375 10.625-5.429687 21.351562-11.199219 32-17.34375 10.136718-5.839844 20.578125-12.246094 31.054687-18.957031.601563-12.175782.945313-24.433594.945313-36.433594zm0 0"/><path d="m156.089844 293.246094c-7.152344-4.117188-14.464844-8.558594-21.824219-13.125 1.148437 14.621094 2.746094 28.8125 4.800781 42.566406 12.71875-4.980469 25.828125-10.695312 39.320313-17.144531-7.433594-3.941407-14.878907-8.015625-22.296875-12.296875zm0 0"/><path d="m253.113281 322.6875c2.03125-13.726562 3.65625-27.945312 4.800781-42.566406-7.359374 4.566406-14.679687 9.007812-21.824218 13.125-7.414063 4.273437-14.863282 8.347656-22.296875 12.296875 13.488281 6.464843 26.597656 12.179687 39.320312 17.144531zm0 0"/><path d="m196.089844 133.328125c18.734375-9.375 36.976562-17.457031 54.398437-24.160156-13.542969-75.257813-36.855469-109.167969-54.398437-109.167969-17.542969 0-40.855469 33.910156-54.398438 109.167969 17.398438 6.6875 35.640625 14.769531 54.398438 24.160156zm0 0"/><path d="m196.089844 314.671875c-18.734375 9.375-36.976563 17.457031-54.398438 24.160156 13.542969 75.257813 36.855469 109.167969 54.398438 109.167969 17.542968 0 40.855468-33.910156 54.398437-109.167969-17.398437-6.6875-35.636719-14.769531-54.398437-24.160156zm0 0"/><path d="m268.417969 328.449219c71.902343 25.949219 112.871093 22.75 121.617187 7.550781 8.742188-15.199219-8.855468-52.320312-67.199218-101.648438-14.722657 11.855469-30.851563 23.617188-48.144532 35.054688-1.257812 20.425781-3.402344 40.195312-6.273437 59.042969zm0 0"/><path d="m310.171875 224c-10.800781-8.59375-22.324219-17.101562-34.570313-25.527344.289063 8.558594.488282 17.09375.488282 25.527344s-.199219 16.96875-.488282 25.519531c12.234376-8.382812 23.761719-16.925781 34.570313-25.519531zm0 0"/><path d="m257.914062 167.878906c-1.148437-14.621094-2.746093-28.8125-4.800781-42.566406-12.707031 4.980469-25.816406 10.695312-39.320312 17.144531 7.433593 3.949219 14.882812 8 22.296875 12.296875 7.152344 4.117188 14.464844 8.558594 21.824218 13.125zm0 0"/><path d="m123.761719 328.449219c-2.902344-18.832031-5.015625-38.625-6.261719-59.035157-17.304688-11.445312-33.433594-23.199218-48.144531-35.054687-58.351563 49.328125-76.015625 86.441406-67.226563 101.640625 8.792969 15.199219 49.746094 18.398438 121.632813-7.550781zm0 0"/><path d="m268.417969 119.550781c2.902343 18.832031 5.015625 38.625 6.265625 59.035157 17.300781 11.445312 33.429687 23.199218 48.140625 35.054687 58.355469-49.328125 76-86.449219 67.203125-101.601563-8.800782-15.152343-49.722656-18.4375-121.609375 7.511719zm0 0"/><path d="m123.753906 119.558594c-27.929687-11.214844-57.519531-17.742188-87.574218-19.320313-18.488282 0-29.882813 4.5625-34.035157 11.761719-8.796875 15.199219 8.859375 52.320312 67.203125 101.648438 14.71875-11.855469 30.847656-23.617188 48.140625-35.054688 1.257813-20.417969 3.402344-40.195312 6.265625-59.035156zm0 0"/><path d="m134.265625 167.878906c7.359375-4.566406 14.679687-9.007812 21.824219-13.125 7.417968-4.273437 14.863281-8.347656 22.296875-12.296875-13.488281-6.464843-26.59375-12.179687-39.320313-17.144531-2.03125 13.726562-3.65625 27.945312-4.800781 42.566406zm0 0"/><path d="m82.011719 224c10.796875 8.59375 22.320312 17.101562 34.566406 25.527344-.289063-8.558594-.488281-17.09375-.488281-25.527344s.199218-16.96875.488281-25.519531c-12.230469 8.382812-23.761719 16.925781-34.566406 25.519531zm0 0"/></g><path d="m404.089844 176c0 17.671875-14.328125 32-32 32s-32-14.328125-32-32 14.328125-32 32-32 32 14.328125 32 32zm0 0" fill="#ff5023"/><path d="m180.089844 392c0 17.671875-14.328125 32-32 32s-32-14.328125-32-32 14.328125-32 32-32 32 14.328125 32 32zm0 0" fill="#ff5023"/></svg>